<svg width="32" height="32" viewBox="0 0 32 32" fill="none" xmlns="http://www.w3.org/2000/svg">
<rect width="32" height="32" fill="white"/>
<path d="M3.05322 19.8333C2.96522 19.8333 2.88922 19.8013 2.82522 19.7373C2.76122 19.6733 2.72922 19.5973 2.72922 19.5093V11.7573C2.72922 11.6693 2.76122 11.5933 2.82522 11.5293C2.88922 11.4653 2.96522 11.4333 3.05322 11.4333H4.94922C5.10922 11.4333 5.22922 11.4773 5.30922 11.5653C5.38922 11.6533 5.44122 11.7173 5.46522 11.7573L7.20522 14.6373L8.94522 11.7573C8.96922 11.7173 9.02122 11.6533 9.10122 11.5653C9.18122 11.4773 9.30122 11.4333 9.46122 11.4333H11.3572C11.4452 11.4333 11.5212 11.4653 11.5852 11.5293C11.6492 11.5933 11.6812 11.6693 11.6812 11.7573V19.5093C11.6812 19.5973 11.6492 19.6733 11.5852 19.7373C11.5212 19.8013 11.4452 19.8333 11.3572 19.8333H9.18522C9.09722 19.8333 9.02122 19.8013 8.95722 19.7373C8.89322 19.6733 8.86122 19.5973 8.86122 19.5093V16.2213L8.06922 17.5173C8.02922 17.5813 7.97322 17.6493 7.90122 17.7213C7.83722 17.7853 7.74522 17.8173 7.62522 17.8173H6.78522C6.66522 17.8173 6.56922 17.7853 6.49722 17.7213C6.43322 17.6493 6.38122 17.5813 6.34122 17.5173L5.54922 16.2213V19.5093C5.54922 19.5973 5.51722 19.6733 5.45322 19.7373C5.38922 19.8013 5.31322 19.8333 5.22522 19.8333H3.05322ZM13.1026 17.4093C13.0146 17.4093 12.9386 17.3773 12.8746 17.3133C12.8106 17.2493 12.7786 17.1733 12.7786 17.0853V15.3813C12.7786 15.2933 12.8106 15.2173 12.8746 15.1533C12.9386 15.0893 13.0146 15.0573 13.1026 15.0573H20.3626C20.4506 15.0573 20.5266 15.0893 20.5906 15.1533C20.6546 15.2173 20.6866 15.2933 20.6866 15.3813V17.0853C20.6866 17.1733 20.6546 17.2493 20.5906 17.3133C20.5266 17.3773 20.4506 17.4093 20.3626 17.4093H13.1026ZM22.1023 19.8333C22.0143 19.8333 21.9383 19.8013 21.8743 19.7373C21.8103 19.6733 21.7783 19.5973 21.7783 19.5093V11.7573C21.7783 11.6693 21.8103 11.5933 21.8743 11.5293C21.9383 11.4653 22.0143 11.4333 22.1023 11.4333H26.0863C26.8543 11.4333 27.4823 11.5293 27.9703 11.7213C28.4583 11.9053 28.8183 12.1853 29.0503 12.5613C29.2903 12.9293 29.4103 13.3933 29.4103 13.9533C29.4103 14.2093 29.3543 14.4413 29.2423 14.6493C29.1383 14.8493 29.0103 15.0173 28.8583 15.1533C28.7143 15.2893 28.5783 15.3893 28.4503 15.4533C28.7543 15.5813 29.0183 15.8053 29.2423 16.1253C29.4743 16.4373 29.5903 16.7933 29.5903 17.1933C29.5903 17.7933 29.4583 18.2893 29.1943 18.6813C28.9303 19.0653 28.5463 19.3533 28.0423 19.5453C27.5463 19.7373 26.9343 19.8333 26.2063 19.8333H22.1023ZM24.7783 17.7693H25.8943C26.0943 17.7693 26.2343 17.7053 26.3143 17.5773C26.4023 17.4413 26.4463 17.3093 26.4463 17.1813C26.4463 17.0373 26.3983 16.9053 26.3023 16.7853C26.2143 16.6573 26.0783 16.5933 25.8943 16.5933H24.7783V17.7693ZM24.7783 14.5893H25.7863C25.9623 14.5893 26.0863 14.5333 26.1583 14.4213C26.2383 14.3013 26.2783 14.1773 26.2783 14.0493C26.2783 13.9213 26.2383 13.7973 26.1583 13.6773C26.0863 13.5573 25.9623 13.4973 25.7863 13.4973H24.7783V14.5893Z" fill="black"/>
</svg>
