<svg width="663" height="243" viewBox="0 0 663 243" fill="none" xmlns="http://www.w3.org/2000/svg">
<path fill-rule="evenodd" clip-rule="evenodd" d="M109.271 72.1599L9.27051 13.0669L32.1259 131.911L56.0562 80.471L109.271 72.1599Z" fill="white" stroke="#010101" stroke-width="12.8575" stroke-linecap="square"/>
<rect width="578" height="127" transform="translate(85 116)" fill="#0FA958"/>
<path d="M125.114 156.455H133.636L148.455 192.636H149L163.818 156.455H172.341V203H165.659V169.318H165.227L151.5 202.932H145.955L132.227 169.295H131.795V203H125.114V156.455ZM194.491 203.705C191.052 203.705 188.09 202.97 185.605 201.5C183.135 200.015 181.226 197.932 179.877 195.25C178.544 192.553 177.877 189.394 177.877 185.773C177.877 182.197 178.544 179.045 179.877 176.318C181.226 173.591 183.105 171.462 185.514 169.932C187.938 168.402 190.771 167.636 194.014 167.636C195.984 167.636 197.893 167.962 199.741 168.614C201.59 169.265 203.249 170.288 204.718 171.682C206.188 173.076 207.347 174.886 208.196 177.114C209.044 179.326 209.468 182.015 209.468 185.182V187.591H181.718V182.5H202.809C202.809 180.712 202.446 179.129 201.718 177.75C200.991 176.356 199.968 175.258 198.65 174.455C197.347 173.652 195.817 173.25 194.059 173.25C192.15 173.25 190.484 173.72 189.059 174.659C187.65 175.583 186.559 176.795 185.787 178.295C185.029 179.78 184.65 181.394 184.65 183.136V187.114C184.65 189.447 185.059 191.432 185.877 193.068C186.711 194.705 187.87 195.955 189.355 196.818C190.84 197.667 192.574 198.091 194.559 198.091C195.847 198.091 197.021 197.909 198.082 197.545C199.143 197.167 200.059 196.606 200.832 195.864C201.605 195.121 202.196 194.205 202.605 193.114L209.037 194.273C208.521 196.167 207.597 197.826 206.264 199.25C204.946 200.659 203.287 201.758 201.287 202.545C199.302 203.318 197.037 203.705 194.491 203.705ZM221.244 182.273V203H214.448V156.455H221.153V173.773H221.585C222.403 171.894 223.653 170.402 225.335 169.295C227.016 168.189 229.213 167.636 231.925 167.636C234.319 167.636 236.41 168.129 238.198 169.114C240.001 170.098 241.395 171.568 242.38 173.523C243.38 175.462 243.88 177.886 243.88 180.795V203H237.085V181.614C237.085 179.053 236.425 177.068 235.107 175.659C233.789 174.235 231.956 173.523 229.607 173.523C228.001 173.523 226.562 173.864 225.289 174.545C224.032 175.227 223.039 176.227 222.312 177.545C221.6 178.848 221.244 180.424 221.244 182.273ZM250.388 203V168.091H256.956V173.636H257.32C257.956 171.758 259.078 170.28 260.684 169.205C262.305 168.114 264.138 167.568 266.184 167.568C266.608 167.568 267.108 167.583 267.684 167.614C268.275 167.644 268.737 167.682 269.07 167.727V174.227C268.797 174.152 268.312 174.068 267.615 173.977C266.918 173.871 266.222 173.818 265.525 173.818C263.918 173.818 262.487 174.159 261.229 174.841C259.987 175.508 259.002 176.439 258.275 177.636C257.547 178.818 257.184 180.167 257.184 181.682V203H250.388ZM282.237 203.773C280.025 203.773 278.025 203.364 276.237 202.545C274.449 201.712 273.033 200.508 271.987 198.932C270.957 197.356 270.442 195.424 270.442 193.136C270.442 191.167 270.821 189.545 271.578 188.273C272.336 187 273.358 185.992 274.646 185.25C275.934 184.508 277.374 183.947 278.965 183.568C280.555 183.189 282.177 182.902 283.828 182.705C285.919 182.462 287.616 182.265 288.919 182.114C290.222 181.947 291.169 181.682 291.76 181.318C292.351 180.955 292.646 180.364 292.646 179.545V179.386C292.646 177.402 292.086 175.864 290.965 174.773C289.858 173.682 288.207 173.136 286.01 173.136C283.722 173.136 281.919 173.644 280.601 174.659C279.298 175.659 278.396 176.773 277.896 178L271.51 176.545C272.268 174.424 273.374 172.712 274.828 171.409C276.298 170.091 277.987 169.136 279.896 168.545C281.805 167.939 283.813 167.636 285.919 167.636C287.313 167.636 288.79 167.803 290.351 168.136C291.927 168.455 293.396 169.045 294.76 169.909C296.139 170.773 297.268 172.008 298.146 173.614C299.025 175.205 299.465 177.273 299.465 179.818V203H292.828V198.227H292.555C292.116 199.106 291.457 199.97 290.578 200.818C289.699 201.667 288.571 202.371 287.192 202.932C285.813 203.492 284.162 203.773 282.237 203.773ZM283.715 198.318C285.593 198.318 287.199 197.947 288.533 197.205C289.881 196.462 290.904 195.492 291.601 194.295C292.313 193.083 292.669 191.788 292.669 190.409V185.909C292.427 186.152 291.957 186.379 291.26 186.591C290.578 186.788 289.798 186.962 288.919 187.114C288.04 187.25 287.184 187.379 286.351 187.5C285.518 187.606 284.821 187.697 284.26 187.773C282.942 187.939 281.737 188.22 280.646 188.614C279.571 189.008 278.707 189.576 278.055 190.318C277.419 191.045 277.101 192.015 277.101 193.227C277.101 194.909 277.722 196.182 278.965 197.045C280.207 197.894 281.79 198.318 283.715 198.318ZM312.751 182.273V203H305.956V168.091H312.478V173.773H312.91C313.713 171.924 314.971 170.439 316.683 169.318C318.41 168.197 320.584 167.636 323.206 167.636C325.584 167.636 327.668 168.136 329.456 169.136C331.244 170.121 332.63 171.591 333.615 173.545C334.6 175.5 335.092 177.917 335.092 180.795V203H328.297V181.614C328.297 179.083 327.637 177.106 326.319 175.682C325.001 174.242 323.191 173.523 320.887 173.523C319.312 173.523 317.91 173.864 316.683 174.545C315.471 175.227 314.509 176.227 313.797 177.545C313.1 178.848 312.751 180.424 312.751 182.273ZM356.569 203V156.455H373.614C376.917 156.455 379.652 157 381.819 158.091C383.985 159.167 385.607 160.629 386.682 162.477C387.758 164.311 388.296 166.379 388.296 168.682C388.296 170.621 387.94 172.258 387.228 173.591C386.516 174.909 385.561 175.97 384.364 176.773C383.182 177.561 381.879 178.136 380.455 178.5V178.955C382 179.03 383.508 179.53 384.978 180.455C386.463 181.364 387.69 182.659 388.66 184.341C389.629 186.023 390.114 188.068 390.114 190.477C390.114 192.856 389.553 194.992 388.432 196.886C387.326 198.765 385.614 200.258 383.296 201.364C380.978 202.455 378.016 203 374.41 203H356.569ZM363.591 196.977H373.728C377.091 196.977 379.5 196.326 380.955 195.023C382.41 193.72 383.137 192.091 383.137 190.136C383.137 188.667 382.766 187.318 382.023 186.091C381.281 184.864 380.22 183.886 378.841 183.159C377.478 182.432 375.857 182.068 373.978 182.068H363.591V196.977ZM363.591 176.591H373C374.576 176.591 375.993 176.288 377.25 175.682C378.523 175.076 379.531 174.227 380.273 173.136C381.031 172.03 381.41 170.727 381.41 169.227C381.41 167.303 380.735 165.689 379.387 164.386C378.038 163.083 375.97 162.432 373.182 162.432H363.591V176.591ZM410.043 203.705C406.77 203.705 403.914 202.955 401.475 201.455C399.035 199.955 397.141 197.856 395.793 195.159C394.444 192.462 393.77 189.311 393.77 185.705C393.77 182.083 394.444 178.917 395.793 176.205C397.141 173.492 399.035 171.386 401.475 169.886C403.914 168.386 406.77 167.636 410.043 167.636C413.315 167.636 416.172 168.386 418.611 169.886C421.05 171.386 422.944 173.492 424.293 176.205C425.641 178.917 426.315 182.083 426.315 185.705C426.315 189.311 425.641 192.462 424.293 195.159C422.944 197.856 421.05 199.955 418.611 201.455C416.172 202.955 413.315 203.705 410.043 203.705ZM410.065 198C412.187 198 413.944 197.439 415.338 196.318C416.732 195.197 417.762 193.705 418.429 191.841C419.111 189.977 419.452 187.924 419.452 185.682C419.452 183.455 419.111 181.409 418.429 179.545C417.762 177.667 416.732 176.159 415.338 175.023C413.944 173.886 412.187 173.318 410.065 173.318C407.929 173.318 406.156 173.886 404.747 175.023C403.353 176.159 402.315 177.667 401.634 179.545C400.967 181.409 400.634 183.455 400.634 185.682C400.634 187.924 400.967 189.977 401.634 191.841C402.315 193.705 403.353 195.197 404.747 196.318C406.156 197.439 407.929 198 410.065 198ZM438.136 156.455V203H431.341V156.455H438.136ZM451.514 182.273V203H444.718V156.455H451.423V173.773H451.855C452.673 171.894 453.923 170.402 455.605 169.295C457.286 168.189 459.483 167.636 462.195 167.636C464.589 167.636 466.68 168.129 468.468 169.114C470.271 170.098 471.665 171.568 472.65 173.523C473.65 175.462 474.15 177.886 474.15 180.795V203H467.355V181.614C467.355 179.053 466.695 177.068 465.377 175.659C464.059 174.235 462.226 173.523 459.877 173.523C458.271 173.523 456.832 173.864 455.559 174.545C454.302 175.227 453.309 176.227 452.582 177.545C451.87 178.848 451.514 180.424 451.514 182.273ZM490.817 203.773C488.605 203.773 486.605 203.364 484.817 202.545C483.029 201.712 481.613 200.508 480.567 198.932C479.537 197.356 479.022 195.424 479.022 193.136C479.022 191.167 479.401 189.545 480.158 188.273C480.916 187 481.938 185.992 483.226 185.25C484.514 184.508 485.954 183.947 487.545 183.568C489.135 183.189 490.757 182.902 492.408 182.705C494.499 182.462 496.196 182.265 497.499 182.114C498.802 181.947 499.749 181.682 500.34 181.318C500.931 180.955 501.226 180.364 501.226 179.545V179.386C501.226 177.402 500.666 175.864 499.545 174.773C498.438 173.682 496.787 173.136 494.59 173.136C492.302 173.136 490.499 173.644 489.181 174.659C487.878 175.659 486.976 176.773 486.476 178L480.09 176.545C480.848 174.424 481.954 172.712 483.408 171.409C484.878 170.091 486.567 169.136 488.476 168.545C490.385 167.939 492.393 167.636 494.499 167.636C495.893 167.636 497.37 167.803 498.931 168.136C500.507 168.455 501.976 169.045 503.34 169.909C504.719 170.773 505.848 172.008 506.726 173.614C507.605 175.205 508.045 177.273 508.045 179.818V203H501.408V198.227H501.135C500.696 199.106 500.037 199.97 499.158 200.818C498.279 201.667 497.151 202.371 495.772 202.932C494.393 203.492 492.742 203.773 490.817 203.773ZM492.295 198.318C494.173 198.318 495.779 197.947 497.113 197.205C498.461 196.462 499.484 195.492 500.181 194.295C500.893 193.083 501.249 191.788 501.249 190.409V185.909C501.007 186.152 500.537 186.379 499.84 186.591C499.158 186.788 498.378 186.962 497.499 187.114C496.62 187.25 495.764 187.379 494.931 187.5C494.098 187.606 493.401 187.697 492.84 187.773C491.522 187.939 490.317 188.22 489.226 188.614C488.151 189.008 487.287 189.576 486.635 190.318C485.999 191.045 485.681 192.015 485.681 193.227C485.681 194.909 486.302 196.182 487.545 197.045C488.787 197.894 490.37 198.318 492.295 198.318ZM540.695 176.614L534.536 177.705C534.278 176.917 533.869 176.167 533.308 175.455C532.763 174.742 532.021 174.159 531.081 173.705C530.142 173.25 528.967 173.023 527.558 173.023C525.634 173.023 524.028 173.455 522.74 174.318C521.452 175.167 520.808 176.265 520.808 177.614C520.808 178.78 521.24 179.72 522.104 180.432C522.967 181.144 524.361 181.727 526.286 182.182L531.831 183.455C535.043 184.197 537.437 185.341 539.013 186.886C540.589 188.432 541.377 190.439 541.377 192.909C541.377 195 540.771 196.864 539.558 198.5C538.361 200.121 536.687 201.394 534.536 202.318C532.399 203.242 529.922 203.705 527.104 203.705C523.195 203.705 520.005 202.871 517.536 201.205C515.066 199.523 513.551 197.136 512.99 194.045L519.558 193.045C519.967 194.758 520.808 196.053 522.081 196.932C523.354 197.795 525.013 198.227 527.058 198.227C529.286 198.227 531.066 197.765 532.399 196.841C533.733 195.902 534.399 194.758 534.399 193.409C534.399 192.318 533.99 191.402 533.172 190.659C532.369 189.917 531.134 189.356 529.467 188.977L523.558 187.682C520.301 186.939 517.892 185.758 516.331 184.136C514.786 182.515 514.013 180.462 514.013 177.977C514.013 175.917 514.589 174.114 515.74 172.568C516.892 171.023 518.483 169.818 520.513 168.955C522.543 168.076 524.869 167.636 527.49 167.636C531.263 167.636 534.233 168.455 536.399 170.091C538.566 171.712 539.998 173.886 540.695 176.614ZM556.447 203.773C554.235 203.773 552.235 203.364 550.447 202.545C548.659 201.712 547.243 200.508 546.197 198.932C545.167 197.356 544.652 195.424 544.652 193.136C544.652 191.167 545.031 189.545 545.788 188.273C546.546 187 547.568 185.992 548.856 185.25C550.144 184.508 551.584 183.947 553.175 183.568C554.765 183.189 556.387 182.902 558.038 182.705C560.129 182.462 561.826 182.265 563.129 182.114C564.432 181.947 565.379 181.682 565.97 181.318C566.561 180.955 566.856 180.364 566.856 179.545V179.386C566.856 177.402 566.296 175.864 565.175 174.773C564.068 173.682 562.417 173.136 560.22 173.136C557.932 173.136 556.129 173.644 554.811 174.659C553.508 175.659 552.606 176.773 552.106 178L545.72 176.545C546.478 174.424 547.584 172.712 549.038 171.409C550.508 170.091 552.197 169.136 554.106 168.545C556.015 167.939 558.023 167.636 560.129 167.636C561.523 167.636 563 167.803 564.561 168.136C566.137 168.455 567.606 169.045 568.97 169.909C570.349 170.773 571.478 172.008 572.356 173.614C573.235 175.205 573.675 177.273 573.675 179.818V203H567.038V198.227H566.765C566.326 199.106 565.667 199.97 564.788 200.818C563.909 201.667 562.781 202.371 561.402 202.932C560.023 203.492 558.372 203.773 556.447 203.773ZM557.925 198.318C559.803 198.318 561.409 197.947 562.743 197.205C564.091 196.462 565.114 195.492 565.811 194.295C566.523 193.083 566.879 191.788 566.879 190.409V185.909C566.637 186.152 566.167 186.379 565.47 186.591C564.788 186.788 564.008 186.962 563.129 187.114C562.25 187.25 561.394 187.379 560.561 187.5C559.728 187.606 559.031 187.697 558.47 187.773C557.152 187.939 555.947 188.22 554.856 188.614C553.781 189.008 552.917 189.576 552.265 190.318C551.629 191.045 551.311 192.015 551.311 193.227C551.311 194.909 551.932 196.182 553.175 197.045C554.417 197.894 556 198.318 557.925 198.318ZM586.961 182.273V203H580.166V168.091H586.688V173.773H587.12C587.923 171.924 589.181 170.439 590.893 169.318C592.62 168.197 594.794 167.636 597.416 167.636C599.794 167.636 601.878 168.136 603.666 169.136C605.454 170.121 606.84 171.591 607.825 173.545C608.81 175.5 609.302 177.917 609.302 180.795V203H602.507V181.614C602.507 179.083 601.848 177.106 600.529 175.682C599.211 174.242 597.401 173.523 595.098 173.523C593.522 173.523 592.12 173.864 590.893 174.545C589.681 175.227 588.719 176.227 588.007 177.545C587.31 178.848 586.961 180.424 586.961 182.273ZM615.856 203V168.091H622.651V203H615.856ZM619.288 162.705C618.106 162.705 617.091 162.311 616.242 161.523C615.409 160.72 614.992 159.765 614.992 158.659C614.992 157.538 615.409 156.583 616.242 155.795C617.091 154.992 618.106 154.591 619.288 154.591C620.469 154.591 621.477 154.992 622.31 155.795C623.159 156.583 623.583 157.538 623.583 158.659C623.583 159.765 623.159 160.72 622.31 161.523C621.477 162.311 620.469 162.705 619.288 162.705Z" fill="white"/>
</svg>
